<?xml version="1.0" encoding="utf-8"?>
<!-- Generator: Adobe Illustrator 21.0.0, SVG Export Plug-In . SVG Version: 6.00 Build 0)  -->
<svg version="1.1" id="Layer_1" xmlns="http://www.w3.org/2000/svg" xmlns:xlink="http://www.w3.org/1999/xlink" x="0px" y="0px"
	 width="1400px" height="980px" viewBox="0 0 1400 980" enable-background="new 0 0 1400 980" xml:space="preserve">
<g>
	<rect id="XMLID_2_" fill="#F5FAF4" width="1400" height="980"/>
	<rect id="XMLID_1_" x="28.3" y="19.8" fill="#ADC6B9" width="1343.5" height="940.4"/>
	<g>
		<polygon fill="#543E36" points="860,781 540,781 570.7,642.7 829.3,642.7 		"/>
		<polygon fill="#F0D0B4" points="784.4,711.3 615.6,711.3 381,821.8 381,952.6 1019,952.6 1019,821.8 		"/>
		<g>
			<polygon fill="#F0D0B4" points="817.2,858 582.8,858 619.3,507.3 780.7,507.3 			"/>
			<path fill="#DFB28B" d="M795.1,646.5l-14.5-139.2H619.3L609,606.5C609,606.5,718.8,689.9,795.1,646.5z"/>
		</g>
		<path fill="#FFFFFF" d="M815.4,731c-6.4,27.9-55.6,49.6-115.4,49.6S591,758.9,584.6,731l-179.9,83c-20,9.2-34.6,26.6-39.5,47.1
			l-23.7,98.7h717.1l-22.9-95.5c-5.4-22.5-21.3-41.5-43.3-51.7L815.4,731z"/>
		<path fill="#BEC9CB" d="M573.8,959.8h484.7l-22.9-95.5c-5.4-22.5-21.3-41.5-43.3-51.7L815.4,731c-4.4,19.4-29.7,35.9-64.9,44
			l-82.4,152.1l19.5-111C687.7,816.1,616,918.8,573.8,959.8z"/>
		<g>
			<path fill="#EBC19C" d="M595.3,459.8l-16.2-10.3c-6.5-4.1-14.6-2.2-17.7,4.3l-1,2c-1.7,3.6-1.6,7.9,0.3,11.6l22.3,43.7
				c1.3,2.5,3.4,4.6,5.9,5.9l3.7,1.9c5,2.6,11,1.7,14.6-2.2l2.4-2.6c2.7-3,3.6-7.2,2.4-11.3l-10.8-35.2
				C600.3,464.4,598.1,461.6,595.3,459.8z"/>
			<path fill="#EBC19C" d="M800.9,462.9l13.8-13.5c5.6-5.4,14.1-5.4,18.6,0.1l1.4,1.7c2.5,3,3.3,7.2,2.2,11.3L824,509.3
				c-0.7,2.7-2.4,5.2-4.6,7l-3.3,2.6c-4.5,3.6-10.6,4-14.9,1l-2.9-2c-3.3-2.3-5.1-6.1-4.8-10.3l3.2-36.1
				C797,468.4,798.5,465.2,800.9,462.9z"/>
		</g>
		<polygon fill="#F0D0B4" points="754.3,241.1 648.6,241.1 581.2,341.2 596.9,556.4 663.8,626.7 736.8,626.7 804.1,556.4 
			821.1,341.2 		"/>
		<g>
			
				<linearGradient id="SVGID_1_" gradientUnits="userSpaceOnUse" x1="1969.3154" y1="413.4822" x2="1969.3154" y2="563.6288" gradientTransform="matrix(1 0 0 1 -1268.5535 0)">
				<stop  offset="1.891892e-02" style="stop-color:#F0D0B4"/>
				<stop  offset="1" style="stop-color:#B34A26"/>
			</linearGradient>
			<polygon fill="url(#SVGID_1_)" points="715.7,491.6 711.7,491.6 719.8,419.9 682,419.9 689.7,491.6 685.8,491.6 681.7,512.8 
				687.9,516.4 693.3,525.9 694.9,525.9 706.3,525.9 707.9,525.9 714.2,516.4 719.6,512.8 			"/>
			<path fill="#9A714A" d="M693.3,525.9h1.6h11.4h1.6l6.2-9.5l5.4-3.6c-20.8-15.4-37.8,0-37.8,0l6.2,3.6L693.3,525.9z"/>
			<path opacity="0.5" fill="#EFC7B1" d="M711.6,507.2c-0.1,4.8-5,8.6-11,8.6s-10.9-3.9-10.9-8.6c0-4.8,4.9-8.7,11-8.7
				S711.6,502.4,711.6,507.2z"/>
		</g>
		<g>
			<path fill="#EBC19C" d="M736.8,626.7l67.4-70.4l6.7-84.8C760.5,485.8,736.8,626.7,736.8,626.7z"/>
			<path fill="#EBC19C" d="M590.7,471.4l6.2,85l67,70.4C643.5,531.9,612.5,489.4,590.7,471.4z"/>
		</g>
		<polygon fill="#DFB28B" points="648.1,409.8 631.7,418.1 662.5,435.5 668.9,441.6 686.3,409.8 		"/>
		<polygon fill="#DFB28B" points="732.6,413.2 767.6,412.4 739.4,438.2 733,441.6 715.1,418.4 		"/>
		<g>
			<g>
				<path fill="#A46C35" d="M682.2,408.2l-2.9,12.4l-1.6-12.5l-44.9-0.4l-17.9,16.4c0,0,26.9-23.2,49,0.4l22.7,0.2l2.6-16.5
					L682.2,408.2z"/>
			</g>
			<g>
				<path fill="#A46C35" d="M719.7,408.2l2.8,12.4l1.7-12.5l44.9-0.4l17.8,16.4c0,0-26.7-23.2-49,0.4l-22.7,0.2l-2.5-16.5
					L719.7,408.2z"/>
			</g>
		</g>
		<g>
			<polygon fill="#553F37" points="735.4,431.9 739.1,439.6 763.2,439.6 767,434.1 767.2,439.6 774.1,439.6 769.3,430.8 
				734.8,428.5 728.2,439.6 734.5,439.6 			"/>
			<polygon fill="#553F37" points="664.6,431.9 660.9,439.6 636.8,439.6 633,434.1 632.8,439.6 625.9,439.6 630.8,430.8 
				665.3,428.5 671.8,439.6 665.5,439.6 			"/>
		</g>
		<path fill="#DFB28B" d="M702.6,545.8c-20.6,1.2-40.8-1-40.8-1l34.2-6.3l4.9,1.7l4.4-1.7l42.8,1.6
			C748,540.1,725.1,544.5,702.6,545.8z"/>
		<polygon fill="#C1A68E" points="692.5,527.9 654,538.6 652.3,545.6 698.3,535.9 		"/>
		<polygon fill="#C1A68E" points="707,527.9 704.8,535.7 752.3,537.7 748,526.1 		"/>
		<path fill="#EBC19C" d="M726.7,569.8c-0.1,5.4-11.2,9.7-24.7,9.7c-13.6,0-24.6-4.3-24.7-9.7c-0.1-5.4,11-9.8,24.7-9.8
			C715.8,559.9,726.8,564.3,726.7,569.8z"/>
		<path fill="#C1A68E" d="M713.4,565.2c0,2.4-5,4.4-11.1,4.4s-11.1-2-11.1-4.4c0-2.4,4.9-4.4,11.1-4.4
			C708.5,560.8,713.5,562.7,713.4,565.2z"/>
		<path fill="#DFB28B" d="M749.2,515l5.9,33.1C766.8,527.3,749.2,515,749.2,515z"/>
		<path fill="#AC8457" d="M829.4,303.1l-34.9-12.4l-32.7-42.8l-99.2-18l-71,59.7l-11.7,68.8c3,10.5,15.9,197.9,15.9,197.9l67.7,70.4
			h73.7l68.1-70.4l11.9-148.7c0,0,1.4-34.1,2.4-46.2c0.1-1.1,0.3-2.4,0.5-3.7L829.4,303.1z M808.6,423.9c-2.2,22.2-7.8,74.2-12,89.5
			c-5.3,19-24.1,40-24.1,40s-2,17-7.6,26.9c-5.5,9.8-22.4,21.1-22.4,21.1c-2.6,10.5-12.2,13.2-16.6,13.2s-30.9-11.2-30.9-11.2
			s-14.8,6.8-23.6,8.1c-8.8,1.3-14.1-10.5-14.1-10.5s-12-3-25-15c-13.2-12.2-8.5-28-8.5-28s-17.8-21.7-21.9-35.8
			c-3-10.2-10.7-105-10.7-105c4.3-41.3,9.8-45,9.8-45c-3.9-26.1,1.2-47.1,22.5-62.6c21.6-15.7,90.1,12.8,90.1,12.8
			c24.6-14.1,66.4-6.7,66.4-6.7l5.6-14.3l-0.9,16.3c31.8-2.7,18.8,54.5,18.8,54.5C816.2,378.4,808.6,423.9,808.6,423.9z"/>
		<path fill="#8E572A" d="M601,372.2c-3.9-26.1,1.2-47.1,22.5-62.6c21.6-15.7,90.1,12.8,90.1,12.8c24.6-14.1,66.4-6.7,66.4-6.7
			l5.6-14.3l-0.9,16.3c31.8-2.7,18.8,54.5,18.8,54.5l16.2-12.4c2.7-19.1,26.5-64.5,26.5-64.5S831.9,262,807,271.1
			c0,0-23.9-116.1-69-116.1c-17.7,0-38.7,5.3-60.5,16.5c22-5,54.8-10.6,63.4-2c13.2,13.2,13.1,39.8,13.1,39.8s-47.6-26.6-90-30.2
			c-29,17.8-58,45.5-80.9,83.6c-25.2,5.1-42.9,38.7-42.9,38.7s34,37.1,39.6,57.1L601,372.2z"/>
		<path fill="#AC8457" d="M678.9,290.7c-67.6-23.6-35.9,79-35.9,79c-12.2-93.7,36.7-75.4,36.7-75.4L678.9,290.7z"/>
		<g>
			<path fill="#543E36" d="M585,717.3c-0.2-0.6-0.3-1.1-0.4-1.7l-179.9,88.6c-20,9.9-34.6,28.4-39.5,50.3l-23.7,105.3H585V717.3z"/>
			<path fill="#543E36" d="M816.3,959.8H1062l-23.2-104.5c-5.5-24.7-21.6-45.4-43.9-56.5L816.3,710V959.8z"/>
		</g>
		<path fill="#EBC19C" d="M627.3,449.7c28.7,12.7,41.6-8.1,41.6-8.1L627.3,449.7z"/>
	</g>
</g>
</svg>
