<?xml version="1.0" encoding="utf-8"?>
<!-- Generator: Adobe Illustrator 21.0.0, SVG Export Plug-In . SVG Version: 6.00 Build 0)  -->
<svg version="1.1" id="Layer_1" xmlns="http://www.w3.org/2000/svg" xmlns:xlink="http://www.w3.org/1999/xlink" x="0px" y="0px"
	 width="1400px" height="980px" viewBox="0 0 1400 980" enable-background="new 0 0 1400 980" xml:space="preserve">
<g>
	<rect id="XMLID_6_" fill="#F5FAF4" width="1400" height="980"/>
	<g>
		<rect id="XMLID_4_" x="28.3" y="19.8" fill="#ADC6B9" width="1343.5" height="940.4"/>
	</g>
	<g>
		<g>
			<polygon fill="#C0A58D" points="794.9,813.4 605.1,813.4 634.7,592.6 765.3,592.6 			"/>
			<path fill="#B19177" d="M777,680.2l-11.7-87.6H634.7l-8.4,62.4C626.3,655.1,715.2,707.6,777,680.2z"/>
		</g>
		<g>
			<path fill="#FFFFFF" d="M780,699c-6.1,30.9-23,44-80,44s-76.9-9.1-83-40l-198.6,97c-19.1,10.2-33,29.5-37.7,52.2l-22.6,109.3
				h683.7l-19.3-93.4c-6.8-32.9-27.8-61.1-57.4-77L780,699z"/>
			<path fill="#CAC3E1" d="M972.5,795.1L821,719.7c0,0-92.1,239.8-234,111.9l66.9,97.6c0,0-264.3-77.6-261.7,32.3h649.6l-21-101.6
				C1015.1,832.2,997.4,808.5,972.5,795.1z"/>
			<g>
				<path fill="#335C64" d="M784.6,961.5h271.3l-20.1-97.3c-7.1-34.3-29-63.6-59.8-80.1l-192.7-95.9L784.6,961.5z"/>
				<path fill="#335C64" d="M613.6,692.4l-206.8,101c-19.9,10.7-34.3,30.7-39.2,54.4l-23.5,113.8h268.6L613.6,692.4z"/>
			</g>
			<g>
				<path fill="#2C5156" d="M487.5,961.5C459.6,946.9,421,855,421,855l-8.8,106.5H487.5z"/>
				<path fill="#2C5156" d="M997,841c0,0-62,90-84,94s12-84,12-84l-66.3,110.5h128.9L997,841z"/>
			</g>
			<polygon fill="#2C5156" points="519.5,772.6 575,675.1 627.5,644.5 611,765.1 590,741.1 			"/>
			<polygon fill="#2C5156" points="771.7,645 783,736.3 784.3,794.3 811.7,741 865,754.3 801,655 			"/>
		</g>
		<g>
			<g>
				<polygon fill="#B19177" points="622.3,454.4 598.3,459.2 585,480.2 597,523.6 618.1,540.4 636.5,536.7 649.3,513.2 643,468.6 
									"/>
				<polygon fill="#B19177" points="801.2,459.2 777.1,454.4 756.8,468.6 751.5,513.2 764.7,536.7 783.2,540.4 804,523.6 815,480.2 
									"/>
			</g>
			<ellipse fill="#72594B" cx="700" cy="421.5" rx="105.8" ry="115"/>
			<rect x="604.2" y="436.4" fill="#72594B" width="193" height="83.8"/>
			<polygon fill="#C0A58D" points="671.2,631.4 612.6,563.6 601.6,410.2 620.9,405.7 629,362.8 698.4,374.6 772.2,366 779.5,403.4 
				798.4,411.1 790.9,563.6 733.8,631.4 			"/>
			
				<linearGradient id="SVGID_1_" gradientUnits="userSpaceOnUse" x1="-3316.668" y1="463.0747" x2="-3316.668" y2="572.0464" gradientTransform="matrix(-1 0 0 1 -2616.668 0)">
				<stop  offset="0" style="stop-color:#C0A58D"/>
				<stop  offset="0.5487" style="stop-color:#B19177"/>
				<stop  offset="0.8744" style="stop-color:#8C715D"/>
			</linearGradient>
			<polygon fill="url(#SVGID_1_)" points="674.7,529.7 686.2,515.6 688.2,467.7 709.3,467.7 711.7,515.6 725.3,527.7 719.4,541 
				714,540.3 705.8,544.7 692.2,544.7 683,540.3 678.1,540.5 			"/>
			<ellipse fill="#B19177" cx="700" cy="591.8" rx="31.5" ry="11"/>
			<g>
				<path d="M737.4,463l-13,10l8.3,4.5l3-7.2l7.3,7.2l24.6-4.5C763.3,462.5,737.4,463,737.4,463z"/>
				<path d="M662.6,463l13,10l-8.3,4.5l-3-7.2l-7.3,7.2l-24.6-4.5C636.7,462.5,662.6,463,662.6,463z"/>
			</g>
			<g>
				<path fill="#B19177" d="M724.3,516.8c0,0,50.4,25,65.3-10.2L724.3,516.8z"/>
				<path fill="#B19177" d="M675.7,516.8c0,0-50.4,25-65.3-10.2L675.7,516.8z"/>
			</g>
			<path fill="#B19177" d="M761.8,551.3l-4.9,36.5C769.6,575.2,761.8,551.3,761.8,551.3z"/>
			<path fill="#72594B" d="M740.3,544.6c0,0-16.8,5.4-39.5,5.1v9.3l16.9-1l24.2-2.8l5.7,6.4l-12.2,48l-24.5-0.2l-6.2-19.5l-12.1,0.3
				l-5.2,19.1l-19.6-0.1l-16.2-52l6.3-5.9l19.6,6.7l15.6,0.7v-9.4c-11.5-0.8-24-3.3-36.4-8.6l-13.7,11l13.6,63.7L671,633h65.5
				l9.8-15.1l7.9-63.7L740.3,544.6z"/>
			<path fill="#B19177" d="M654.5,560.3c0,0,53.5,18.7,94.4-2.3L654.5,560.3z"/>
			<ellipse fill="#C0A58D" cx="700" cy="527" rx="12.1" ry="7.6"/>
			<path fill="#B19177" d="M716,411.5l-8.3,33C692.5,431.6,716,411.5,716,411.5z"/>
			<path fill="#B19177" d="M633,476.3c0,0,28.1,19,40.2,0H633z"/>
			<path fill="#B19177" d="M723.9,477.4c0,0,12.6,20.7,44.2,0H723.9z"/>
			<path fill="#72594B" d="M767.3,443l-47.4-6.8l-3.9,8.3l1.2-8.7l-4.9-0.7l0.2,15.1l8.9,1.3c26.3-13.7,54.8,4.3,54.8,4.3L767.3,443
				z"/>
			<path fill="#72594B" d="M633.5,445l47.8-2.6l3.2,8.6l-0.5-8.7l5-0.3l-1.5,15l-9,0.5c-25-16-55-0.5-55-0.5L633.5,445z"/>
		</g>
		<path d="M808.3,462.6l-0.5-7.2l-11.3,3.4c-0.5-0.7-1-1.5-1.6-2.1c-3.5-3.9-9-6-15.4-5.8l-51.6,1.5c-6.4,0.2-11.9,2.6-15.6,6.7
			c-2.7,3.1-4.2,6.8-4.3,10.8l-14.2,0.4c-0.3-4-2-7.6-4.9-10.5c-4-4-9.6-6-16-5.8l-51.6,1.5c-6.4,0.2-11.8,2.6-15,6.7
			c-0.6,0.8-1.1,1.6-1.6,2.5l-12.7-3l-0.1,7.2l11.5,5c0.2,0.9,0.4,1.8,0.7,2.8l6.7,20.2c3.5,10.5,16.4,18.8,28.9,18.5l25.8-1
			c12.6-0.5,24.2-10,25.7-21.2l2.2-16.1c6-5.6,12.2-3.3,15.4-1.3l3.3,16.8c2.2,11.1,14.2,19.9,26.9,19.7l25.8-0.4
			c12.4-0.3,24.9-9.4,27.8-20.1l5.6-20.6c0.3-1.2,0.5-2.3,0.6-3.4L808.3,462.6z M688.6,473.6l-0.1,0.8c-3.6,2.8-11.6,14.1-2.5,18.1
			c-1.3,9-10.6,16.7-20.9,17.1l-25.5,1l-0.2,0c-10.3,0.3-21-6.5-23.9-15.2l-6.7-20.2c-1.3-3.9-0.8-7.7,1.5-10.5
			c2.3-2.9,6.3-4.6,11.1-4.8l51.6-1.5c4.9-0.1,9.2,1.4,12.1,4.4C687.9,465.7,689.1,469.5,688.6,473.6z M793,470l-5.6,20.6
			c-2.4,8.8-12.7,16.3-23,16.6l-0.2,0l-25.5,0.4c-10.3,0.2-20.1-7-21.8-15.9c7.4-4.5,0.2-15.4-3.5-18l-0.1-0.7
			c-0.8-4.1,0.2-8,2.9-11c2.8-3.1,7-4.9,11.9-5l51.6-1.5c4.8-0.1,8.8,1.3,11.3,4.1C793.4,462.3,794.1,466,793,470z"/>
	</g>
</g>
</svg>
